HIERARCHY
ROOT hip
{
	OFFSET 0.000000 0.000000 0.000000 
	CHANNELS 6 Xposition Yposition Zposition Xrotation Zrotation Yrotation
	JOINT abdomen
	{
		OFFSET 0.000000 3.402643 0.000000 
		CHANNELS 3 Xrotation Zrotation Yrotation
		JOINT chest
		{
			OFFSET 0.000000 8.438565 -0.680529 
			CHANNELS 3 Xrotation Zrotation Yrotation
			JOINT neck
			{
				OFFSET 0.000000 10.207942 -0.272212 
				CHANNELS 3 Xrotation Zrotation Yrotation
				JOINT head
				{
					OFFSET 0.000000 3.130431 0.000000 
					CHANNELS 3 Xrotation Zrotation Yrotation
					End Site
					{
						OFFSET 0.000000 3.130435 0.000000 
					}
				}
			}
			JOINT lCollar
			{
				OFFSET 3.470700 6.669187 -0.816635 
				CHANNELS 3 Yrotation Zrotation Xrotation
				JOINT lShldr
				{
					OFFSET 3.198488 0.000000 0.000000 
					CHANNELS 3 Zrotation Yrotation Xrotation
					JOINT lForeArm
					{
						OFFSET 10.139888 0.000000 0.000000 
						CHANNELS 3 Yrotation Zrotation Xrotation
						JOINT lHand
						{
							OFFSET 8.370511 0.000000 0.000000 
							CHANNELS 3 Zrotation Yrotation Xrotation
							End Site
							{
								OFFSET 4.083176 0.000000 0.000000 
							}
						}
					}
				}
			}
			JOINT rCollar
			{
				OFFSET -3.470700 6.669187 -0.816635 
				CHANNELS 3 Yrotation Zrotation Xrotation
				JOINT rShldr
				{
					OFFSET -3.198488 0.000000 0.000000 
					CHANNELS 3 Zrotation Yrotation Xrotation
					JOINT rForeArm
					{
						OFFSET -10.139888 0.000000 0.000000 
						CHANNELS 3 Yrotation Zrotation Xrotation
						JOINT rHand
						{
							OFFSET -8.370511 0.000000 0.000000 
							CHANNELS 3 Zrotation Yrotation Xrotation
							End Site
							{
								OFFSET -4.083176 0.000000 0.000000 
							}
						}
					}
				}
			}
		}
	}
	JOINT lThigh
	{
		OFFSET 5.308129 -1.633274 1.361059 
		CHANNELS 3 Xrotation Zrotation Yrotation
		JOINT lShin
		{
			OFFSET -2.041588 -20.007561 0.000000 
			CHANNELS 3 Xrotation Zrotation Yrotation
			JOINT lFoot
			{
				OFFSET 0.000000 -19.190928 -1.224953 
				CHANNELS 3 Xrotation Yrotation Zrotation
				End Site
				{
					OFFSET 0.000000 -2.449906 4.627600 
				}
			}
		}
	}
	JOINT rThigh
	{
		OFFSET -5.308129 -1.633274 1.361059 
		CHANNELS 3 Xrotation Zrotation Yrotation
		JOINT rShin
		{
			OFFSET 2.041588 -20.007561 0.000000 
			CHANNELS 3 Xrotation Zrotation Yrotation
			JOINT rFoot
			{
				OFFSET 0.000000 -19.190928 -1.224953 
				CHANNELS 3 Xrotation Yrotation Zrotation
				End Site
				{
					OFFSET 0.000000 -2.449906 4.627600 
				}
			}
		}
	}
}
MOTION
Frames: 10
Frame Time: 0.041667
0.221601 40.655266 0.378869 13.993500 0.000000 -0.370993 12.773200 -0.478160 -0.429553 7.072980 -0.261707 -0.449919 0.000000 0.000000 0.000000 21.220512 0.000000 0.000000 2.388516 6.552380 -0.191437 -53.381302 -21.809000 45.737999 -86.740501 -28.666401 -4.795950 19.000700 3.329060 -40.711102 -5.116100 -6.659830 -0.415846 54.852699 36.895546 73.544800 81.613403 5.342070 -6.169930 -0.839051 7.041250 -45.606998 -28.095022 4.024812 0.522324 25.059540 -3.721517 -1.716357 -11.225605 1.106352 -0.076908 -28.231707 -4.951017 0.110345 25.022881 3.678614 1.510395 -11.172546 -1.239609 0.982274 
0.265033 40.255253 0.417905 15.845757 -0.001386 -0.600934 14.609800 -0.590747 -0.647241 7.252190 -0.071493 -0.602980 0.000000 0.000000 0.000000 21.884851 0.000000 0.000000 1.694641 -0.380313 -0.297468 -55.560001 -21.421879 47.437599 -81.885399 -27.333799 -1.734330 20.798100 5.521560 -46.669998 -7.138570 0.340200 -0.558523 39.592300 36.583599 64.329697 88.041603 2.969980 -5.857980 -0.001773 8.126340 -38.720299 -31.686081 4.182431 0.616133 28.130840 -3.834610 -2.007008 -12.536910 1.245655 0.117136 -31.757992 -5.030227 0.147433 27.955036 3.791789 1.809110 -12.414899 -1.078691 0.917866 
0.311186 39.480507 0.567722 17.590132 -0.000939 -0.722001 16.887091 -0.772151 -0.832354 7.944838 -0.121813 -0.777741 0.000000 0.000000 0.000000 22.066536 0.000000 0.000000 0.627230 -7.313006 -0.374453 -39.430954 -20.804831 40.754486 -93.242783 -28.200529 -7.525003 21.276611 12.016464 -46.794415 -6.796228 7.078100 -0.473700 24.257891 37.388023 59.806423 95.032906 -0.495765 -8.375908 -0.113883 5.442149 -31.141003 -36.534611 4.484515 0.718774 34.633156 -4.005862 -2.678133 -15.914652 1.306395 0.416841 -36.744991 -5.283128 0.218053 34.485855 3.971036 2.472109 -15.698849 -1.040435 0.755081 
0.362476 38.806316 0.684030 19.219299 0.000000 -0.749149 19.423599 -0.947112 -0.937441 8.942690 -0.341369 -0.908436 0.000000 0.000000 0.000000 21.839092 0.000000 0.000000 -0.839652 -14.245700 -0.415399 -23.914400 -19.497572 33.592701 -107.522003 -29.521500 -14.869300 20.085699 16.984200 -43.268299 -5.500660 13.816000 -0.312353 22.683300 36.611198 60.581402 98.150497 -3.954970 -12.238500 3.274230 -0.983606 -22.088699 -39.894325 4.491755 0.787754 37.918022 -4.060559 -3.015096 -17.461912 1.314309 0.719408 -40.126598 -5.464939 0.262521 37.770088 4.026675 2.817820 -17.226969 -1.013632 0.725362 
0.418806 38.570408 0.659856 20.722483 0.000371 -0.698398 21.925980 -0.897968 -0.854108 9.943990 -0.421739 -0.826378 0.000000 0.000000 0.000000 21.276041 0.000000 0.000000 -2.636787 -12.108424 -0.415865 -23.380148 -17.147974 31.376001 -114.426384 -29.904379 -18.148598 16.188793 16.090122 -37.242729 -4.624525 10.406150 -0.250793 38.003132 31.348013 61.227314 96.909836 -6.732482 -15.239376 13.659540 -8.586813 -10.386688 -42.184616 4.455307 0.853177 38.898209 -4.071307 -3.127602 -17.642931 1.247033 0.847686 -42.339138 -5.527383 0.299698 38.712227 4.026630 2.913550 -17.437935 -1.086546 0.751437 
0.470027 38.560295 0.537500 22.075094 0.000252 -0.590022 24.305149 -0.683051 -0.643738 10.879402 -0.368050 -0.598724 0.000000 0.000000 0.000000 20.450905 0.000000 0.000000 -4.314326 -2.061120 -0.381605 -33.000000 -14.115550 31.957067 -115.549866 -29.321629 -18.301893 9.426320 12.064445 -29.459377 -4.006223 -1.396652 -0.270224 58.268818 23.889788 60.734619 94.714233 -8.634965 -17.155527 26.004545 -14.301908 0.220719 -44.144146 4.275061 0.927850 39.428989 -4.053267 -3.193609 -17.550016 1.172234 1.050050 -44.356495 -5.704026 0.315349 39.388184 4.040677 2.982593 -17.444700 -1.135513 0.841461 
0.503479 38.425930 0.396578 23.249100 0.000000 -0.445360 26.523100 -0.429688 -0.410156 11.737700 -0.263812 -0.351591 0.000000 0.000000 0.000000 19.437208 0.000000 0.000000 -5.327276 5.750870 -0.320920 -43.146301 -10.937700 31.295799 -115.459000 -28.086901 -17.907600 -0.142099 9.403570 -20.557501 -3.100580 -8.792010 -0.303078 67.761101 17.826899 59.198200 95.938904 -9.589550 -18.259800 33.138199 -14.938000 4.759030 -45.834064 4.314866 0.989211 39.711548 -4.078915 -3.225394 -17.307428 0.974181 1.027117 -46.021740 -5.792509 0.342220 39.634609 4.016811 3.023484 -17.199602 -1.285044 0.879907 
0.513450 37.915600 0.290780 24.237976 -0.000100 -0.285489 28.545115 -0.241154 -0.236883 12.513763 -0.177837 -0.183135 0.000000 0.000000 0.000000 18.308477 0.000000 0.000000 -5.130635 3.922504 -0.242115 -46.501369 -8.108588 26.624149 -117.628578 -26.474400 -18.918341 -12.060907 11.380739 -11.356322 -1.703540 -2.893601 -0.296581 56.383961 15.731756 56.932026 103.243416 -9.643962 -18.837109 30.335001 -8.900452 0.226712 -48.200451 4.258675 1.055037 41.682308 -4.077388 -3.455001 -17.890198 0.859501 1.189828 -48.604504 -5.799381 0.395878 42.007233 4.021275 3.277323 -17.956818 -1.503436 0.700125 
0.522027 37.170944 0.170087 25.121262 -0.000068 -0.130444 30.349710 -0.124492 -0.126212 13.226919 -0.120129 -0.079662 0.000000 0.000000 0.000000 17.138233 0.000000 0.000000 -3.179403 -3.990044 -0.153491 -44.987671 -5.949343 20.262224 -121.166283 -24.600517 -20.783607 -24.291092 16.376520 -3.394674 -0.975486 9.528618 -0.257151 36.534626 16.104755 55.126442 112.424713 -9.328341 -19.220699 22.651859 -0.979683 -8.485764 -51.859070 4.438196 1.099959 46.572193 -4.087337 -3.985937 -19.966703 0.757214 1.383199 -52.109440 -6.162226 0.477151 46.690975 4.015291 3.793008 -20.015800 -1.614220 0.662537 
0.558247 36.431931 -0.041448 26.000000 0.000000 0.000000 31.918699 -0.062693 -0.060130 13.902600 -0.085991 0.000482 0.000000 0.000000 0.000000 16.000000 0.000000 0.000000 1.071420 -11.690300 -0.063351 -42.837700 -4.737850 15.802200 -124.087997 -22.542200 -22.327101 -34.397701 21.548300 1.608650 -2.417920 17.790600 -0.206006 26.233700 16.428301 55.190899 117.564003 -9.293430 -19.755899 17.591299 2.437580 -14.514900 -55.492226 4.464437 1.146454 51.078640 -4.042045 -4.493260 -21.696751 0.747065 1.666472 -55.763271 -6.441991 0.570450 51.275867 3.965986 4.282466 -21.820293 -1.721154 0.556999 
